<?xml version="1.0" encoding="UTF-8" standalone="no"?>
<!-- Created with Inkscape (http://www.inkscape.org/) -->

<svg
   xmlns:dc="http://purl.org/dc/elements/1.1/"
   xmlns:cc="http://creativecommons.org/ns#"
   xmlns:rdf="http://www.w3.org/1999/02/22-rdf-syntax-ns#"
   xmlns:svg="http://www.w3.org/2000/svg"
   xmlns="http://www.w3.org/2000/svg"
   xmlns:xlink="http://www.w3.org/1999/xlink"
   xmlns:sodipodi="http://sodipodi.sourceforge.net/DTD/sodipodi-0.dtd"
   xmlns:inkscape="http://www.inkscape.org/namespaces/inkscape"
   width="330.21011mm"
   height="224.36819mm"
   viewBox="0 0 1170.0358 795.00541"
   id="svg2"
   version="1.1"
   inkscape:version="0.91 r13725"
   sodipodi:docname="mctclean.svg">
  <defs
     id="defs4">
    <inkscape:perspective
       sodipodi:type="inkscape:persp3d"
       inkscape:vp_x="0 : 526.18107 : 1"
       inkscape:vp_y="0 : 999.99995 : 0"
       inkscape:vp_z="744.09442 : 526.18108 : 1"
       inkscape:persp3d-origin="372.04721 : 350.78738 : 1"
       id="perspective4822" />
    <linearGradient
       id="linearGradient6556"
       inkscape:collect="always">
      <stop
         id="stop6558"
         offset="0"
         style="stop-color:#5d909a;stop-opacity:1" />
      <stop
         id="stop6560"
         offset="1"
         style="stop-color:#32e13d;stop-opacity:1" />
    </linearGradient>
    <linearGradient
       inkscape:collect="always"
       xlink:href="#linearGradient6556"
       id="linearGradient6021"
       gradientUnits="userSpaceOnUse"
       gradientTransform="translate(14630.003,60287.207)"
       x1="-47093.953"
       y1="38489.996"
       x2="-47289.492"
       y2="36143.293" />
    <linearGradient
       inkscape:collect="always"
       xlink:href="#linearGradient6556"
       id="linearGradient6023"
       gradientUnits="userSpaceOnUse"
       gradientTransform="translate(14630.003,60287.207)"
       x1="-47093.953"
       y1="42088.32"
       x2="-47093.953"
       y2="39132.828" />
    <linearGradient
       inkscape:collect="always"
       xlink:href="#linearGradient6556"
       id="linearGradient6025"
       gradientUnits="userSpaceOnUse"
       gradientTransform="translate(14630.003,60287.207)"
       x1="-48641.23"
       y1="33326.406"
       x2="-49052.672"
       y2="37564.629" />
    <linearGradient
       inkscape:collect="always"
       xlink:href="#linearGradient6556"
       id="linearGradient6027"
       gradientUnits="userSpaceOnUse"
       gradientTransform="translate(14630.003,60287.207)"
       x1="-52149.594"
       y1="40846.898"
       x2="-50599.949"
       y2="38878.016" />
    <linearGradient
       inkscape:collect="always"
       xlink:href="#linearGradient6556"
       id="linearGradient6029"
       gradientUnits="userSpaceOnUse"
       gradientTransform="translate(14617.503,60287.207)"
       x1="-47417.801"
       y1="44427.227"
       x2="-46353.93"
       y2="32688.904" />
    <linearGradient
       inkscape:collect="always"
       xlink:href="#linearGradient6556"
       id="linearGradient6031"
       gradientUnits="userSpaceOnUse"
       gradientTransform="translate(14630.003,60287.207)"
       x1="-50548.34"
       y1="35287.488"
       x2="-52597.016"
       y2="41432.828" />
    <linearGradient
       inkscape:collect="always"
       xlink:href="#linearGradient6556"
       id="linearGradient6033"
       gradientUnits="userSpaceOnUse"
       gradientTransform="matrix(-1,0,0,1,-79595.437,60287.207)"
       x1="-48641.23"
       y1="33326.406"
       x2="-49052.672"
       y2="37564.629" />
    <linearGradient
       inkscape:collect="always"
       xlink:href="#linearGradient6556"
       id="linearGradient6035"
       gradientUnits="userSpaceOnUse"
       gradientTransform="matrix(-1,0,0,1,-79595.437,60287.207)"
       x1="-52149.594"
       y1="40846.898"
       x2="-50599.949"
       y2="38878.016" />
    <linearGradient
       inkscape:collect="always"
       xlink:href="#linearGradient6556"
       id="linearGradient6037"
       gradientUnits="userSpaceOnUse"
       gradientTransform="matrix(-1,0,0,1,-79582.937,60287.207)"
       x1="-47417.801"
       y1="44427.227"
       x2="-46353.93"
       y2="32688.904" />
    <linearGradient
       inkscape:collect="always"
       xlink:href="#linearGradient6556"
       id="linearGradient6039"
       gradientUnits="userSpaceOnUse"
       gradientTransform="matrix(-1,0,0,1,-79595.437,60287.207)"
       x1="-50548.34"
       y1="35287.488"
       x2="-52597.016"
       y2="41432.828" />
  </defs>
  <sodipodi:namedview
     id="base"
     pagecolor="#ffffff"
     bordercolor="#666666"
     borderopacity="1.0"
     inkscape:pageopacity="0.0"
     inkscape:pageshadow="2"
     inkscape:zoom="0.41984052"
     inkscape:cx="466.94288"
     inkscape:cy="182.01048"
     inkscape:document-units="px"
     inkscape:current-layer="g5977"
     showgrid="false"
     inkscape:window-width="1404"
     inkscape:window-height="855"
     inkscape:window-x="0"
     inkscape:window-y="1"
     inkscape:window-maximized="1"
     showguides="false"
     fit-margin-top="0"
     fit-margin-left="0"
     fit-margin-right="0"
     fit-margin-bottom="0" />
  <metadata
     id="metadata7">
    <rdf:RDF>
      <cc:Work
         rdf:about="">
        <dc:format>image/svg+xml</dc:format>
        <dc:type
           rdf:resource="http://purl.org/dc/dcmitype/StillImage" />
        <dc:title />
      </cc:Work>
    </rdf:RDF>
  </metadata>
  <g
     inkscape:label="Layer 1"
     inkscape:groupmode="layer"
     id="layer1"
     transform="translate(71257.967,-136015.84)">
    <g
       id="g5977"
       transform="matrix(0.0636043,0,0,0.0636043,-68606.909,130285.09)">
      <g
         id="g4158">
        <path
           id="path5979"
           d="m -32506.111,96238.485 c -264.325,-0.408 -559.487,124.96 -730.233,300.219 -112.622,121.649 -196.087,269.227 -246.365,426.98 -56.318,178.3 -57.029,372.54 -8.77,552.678 55.785,209.697 181.508,400.888 355.381,531.498 63.352,46.68 129.622,89.879 201.096,123.203 262.712,123.193 578.45,126.808 843.293,8.045 103.323,-45.911 197.517,-110.972 279.164,-189.09 105.862,-96.191 189.585,-216.286 243.977,-348.472 96.336,-231.992 105.289,-499.736 20.021,-736.487 -33.427,-93.67 -81.938,-181.902 -142.262,-260.908 -57.045,-77.985 -124.813,-148.529 -202.64,-205.885 -163.555,-121.902 -364.721,-190.673 -567.811,-200.861 -14.94,-0.679 -29.871,-0.986 -44.851,-0.92 z m -1.823,133.078 c 89.437,0.857 178.89,23.378 256.807,67.616 107.643,60.421 193.11,159.67 235.371,275.796 42.405,114.511 43.481,243.886 1.877,358.78 -44.49,124.673 -137.633,231.415 -256.029,290.961 -108.465,55.39 -236.432,71.589 -355.143,44.084 -133.069,-30.087 -253.107,-114.212 -325.916,-229.703 -68.401,-107.394 -96.718,-240.087 -75.549,-365.866 20.121,-125.937 87.757,-243.75 187.229,-323.736 84.754,-69.052 191.43,-110.531 300.582,-116.781 10.243,-0.665 20.506,-1.043 30.771,-1.151 z"
           style="opacity:1;fill:url(#linearGradient6021);fill-opacity:1;stroke:none;stroke-width:200;stroke-linejoin:miter;stroke-miterlimit:4;stroke-dasharray:none;stroke-dashoffset:0;stroke-opacity:1"
           inkscape:connector-curvature="0"
           sodipodi:nodetypes="ccccccccccccccccccccccccc" />
        <path
           inkscape:connector-curvature="0"
           style="opacity:1;fill:url(#linearGradient6023);fill-opacity:1;stroke:none;stroke-width:200;stroke-linejoin:miter;stroke-miterlimit:4;stroke-dasharray:none;stroke-dashoffset:0;stroke-opacity:1"
           d="m -33381.83,98370.525 -1915.211,1873.525 -52.486,-14.25 -2405.567,2329.99 5125.633,-1521.66 c 56.637,-15.73 104.788,-30.39 146.744,-43.17 41.956,12.78 90.107,27.44 146.744,43.17 l 5125.633,1521.66 -2405.566,-2329.99 -52.487,14.25 -1915.211,-1873.525 -871.49,478.991 67.541,35.97 -68.437,-35.455 -25.244,14.512 -1.483,-0.852 -1.482,0.852 -25.244,-14.512 -68.438,35.455 67.541,-35.97 -871.49,-478.991 z"
           id="path5981" />
        <path
           id="path5983"
           d="m -35321.786,93535.534 -1030.577,3929.772 888.172,-705.557 1047.294,-1740.854 z"
           style="opacity:1;fill:url(#linearGradient6025);fill-opacity:1;stroke:none;stroke-width:200;stroke-linejoin:miter;stroke-miterlimit:4;stroke-dasharray:none;stroke-dashoffset:0;stroke-opacity:1"
           inkscape:connector-curvature="0"
           sodipodi:nodetypes="ccccc" />
        <path
           id="path5985"
           d="m -37486.724,100123.68 -930.39,1535.48 2449.326,-785.58 857.234,-795.59 z"
           style="opacity:1;fill:url(#linearGradient6027);fill-opacity:1;stroke:none;stroke-width:200;stroke-linejoin:miter;stroke-miterlimit:4;stroke-dasharray:none;stroke-dashoffset:0;stroke-opacity:1"
           inkscape:connector-curvature="0"
           sodipodi:nodetypes="ccccc" />
        <path
           id="path5987"
           d="m -34474.363,90100.05 -872.914,3519.793 836.75,1491.941 808.877,1256.301 683.859,-394.828 z"
           style="opacity:1;fill:url(#linearGradient6029);fill-opacity:1;stroke:none;stroke-width:200;stroke-linejoin:miter;stroke-miterlimit:4;stroke-dasharray:none;stroke-dashoffset:0;stroke-opacity:1"
           inkscape:connector-curvature="0"
           sodipodi:nodetypes="cccccc" />
        <path
           id="path5989"
           d="m -35447.621,96737.801 -916.516,724.936 -5316.353,5136.553 3397.822,-978.91 2350.639,-4062.653 z"
           style="opacity:1;fill:url(#linearGradient6031);fill-opacity:1;stroke:none;stroke-width:200;stroke-linejoin:miter;stroke-miterlimit:4;stroke-dasharray:none;stroke-dashoffset:0;stroke-opacity:1"
           inkscape:connector-curvature="0"
           sodipodi:nodetypes="cccccc" />
        <path
           sodipodi:nodetypes="ccccc"
           inkscape:connector-curvature="0"
           style="opacity:1;fill:url(#linearGradient6033);fill-opacity:1;stroke:none;stroke-width:200;stroke-linejoin:miter;stroke-miterlimit:4;stroke-dasharray:none;stroke-dashoffset:0;stroke-opacity:1"
           d="m -29643.648,93535.534 1030.577,3929.772 -888.172,-705.557 -1047.294,-1740.854 z"
           id="path5991" />
        <path
           sodipodi:nodetypes="ccccc"
           inkscape:connector-curvature="0"
           style="opacity:1;fill:url(#linearGradient6035);fill-opacity:1;stroke:none;stroke-width:200;stroke-linejoin:miter;stroke-miterlimit:4;stroke-dasharray:none;stroke-dashoffset:0;stroke-opacity:1"
           d="m -27478.71,100123.68 930.39,1535.48 -2449.326,-785.58 -857.234,-795.59 z"
           id="path5993" />
        <path
           sodipodi:nodetypes="cccccc"
           inkscape:connector-curvature="0"
           style="opacity:1;fill:url(#linearGradient6037);fill-opacity:1;stroke:none;stroke-width:200;stroke-linejoin:miter;stroke-miterlimit:4;stroke-dasharray:none;stroke-dashoffset:0;stroke-opacity:1"
           d="m -30491.071,90100.05 872.914,3519.793 -836.75,1491.941 -808.877,1256.301 -683.859,-394.828 z"
           id="path5995" />
        <path
           sodipodi:nodetypes="cccccc"
           inkscape:connector-curvature="0"
           style="opacity:1;fill:url(#linearGradient6039);fill-opacity:1;stroke:none;stroke-width:200;stroke-linejoin:miter;stroke-miterlimit:4;stroke-dasharray:none;stroke-dashoffset:0;stroke-opacity:1"
           d="m -29517.813,96737.801 916.516,724.936 5316.353,5136.553 -3397.822,-978.91 -2350.639,-4062.653 z"
           id="path5997" />
      </g>
    </g>
  </g>
</svg>
