<?xml version="1.0" encoding="UTF-8" standalone="no"?>
<svg
   xmlns:dc="http://purl.org/dc/elements/1.1/"
   xmlns:cc="http://creativecommons.org/ns#"
   xmlns:rdf="http://www.w3.org/1999/02/22-rdf-syntax-ns#"
   xmlns:svg="http://www.w3.org/2000/svg"
   xmlns="http://www.w3.org/2000/svg"
   version="1.1"
   id="svg2"
   viewBox="0 0 184.99999 184.99999"
   height="185"
   width="185">
  <defs
     id="defs4" />
  <metadata
     id="metadata7">
    <rdf:RDF>
      <cc:Work
         rdf:about="">
        <dc:format>image/svg+xml</dc:format>
        <dc:type
           rdf:resource="http://purl.org/dc/dcmitype/StillImage" />
        <dc:title></dc:title>
      </cc:Work>
    </rdf:RDF>
  </metadata>
  <g
     transform="translate(394.75812,-534.82999)"
     id="layer1">
    <g
       style="fill:#000000;fill-opacity:1"
       transform="matrix(0.30489529,0,0,0.30504791,-274.39823,486.13395)"
       id="g4147">
      <path
         style="opacity:1;fill:#000000;fill-opacity:1;stroke:none;stroke-width:5.30699921;stroke-linejoin:miter;stroke-miterlimit:7.80000019;stroke-dasharray:none;stroke-dashoffset:0;stroke-opacity:1"
         d="m -336.68195,466.40225 c -19.35785,84.476 -38.71759,168.9518 -58.07617,253.4277 101.12661,-31.1282 202.24731,-62.2757 303.382812,-93.375 101.1354997,31.0993 202.256198,62.2468 303.382808,93.375 -39.27018,-171.3 -78.4954,-342.6103 -117.689448,-513.9277 -49.30648,45.9456 -98.8529803,91.6376 -147.99414,137.7421 5.85523,4.4276 10.81508,10.0093 14.6582,16.2559 27.68993,-25.7391 55.38127,-51.4767 83.07031,-77.2168 21.47516,93.833 42.93513,187.6694 64.455078,281.4922 -49.127508,-45.6369 -98.256628,-91.272 -147.384758,-136.9082 -3.99008,6.2035 -9.07337,11.69 -14.88086,16.2305 27.56986,25.6098 55.1381197,51.2213 82.70898,76.83 -40.1083,12.3348 -80.21692,24.6684 -120.32617,37 -40.103432,-12.3295 -80.205902,-24.6622 -120.308592,-36.9941 27.12512,-25.5572 54.93911,-50.4515 81.71875,-76.3281 -5.83043,-4.358 -10.89343,-9.7429 -14.88477,-15.8301 -48.80261,45.3335 -97.60625,90.6658 -146.4082,136 21.51995,-93.8228 42.97991,-187.6592 64.45508,-281.4922 27.33412,25.4095 54.67076,50.8162 82.00585,76.2246 4.06262,-6.159 9.22643,-11.5944 15.17579,-15.959 -49.14909,-45.6829 -98.29818,-91.3659 -147.44727,-137.0488 -19.87109,86.834 -39.74219,173.668 -59.61328,260.502 z m 213.08008,-123.2168 c 1.80933,1.7763 3.51565,-2.0576 0,0 z m -22.13672,76.2285 c -2.5528,2.2212 2.28092,4.5536 2.24219,1.25 -0.70533,-0.1649 -1.53329,-1.5893 -2.24219,-1.25 z m -143.63477,146.1543 c 28.54667,8.7786 57.09365,17.5563 85.64063,26.334 -33.66652,10.3678 -67.33496,20.7294 -101.00196,31.0957 4.43316,-19.3546 8.87051,-38.7082 13.30469,-58.0625 0.68555,0.2109 1.3711,0.4218 2.05664,0.6328 z m 398.5332,1.4648 c 4.27401,18.6551 8.55124,37.3095 12.82422,55.9649 -33.666988,-10.3663 -67.335438,-20.7279 -101.001948,-31.0957 29.23254,-8.9886 58.46504,-17.9773 87.697258,-26.9668 0.16016,0.6992 0.32032,1.3984 0.48047,2.0976 z"
         id="path4297" />
      <path
         style="opacity:1;fill:#000000;fill-opacity:1;stroke:none;stroke-width:5.30699921;stroke-linejoin:miter;stroke-miterlimit:7.80000019;stroke-dasharray:none;stroke-dashoffset:0;stroke-opacity:1"
         d="m -91.762028,346.87295 c -4.42488,0.4926 -10.134032,-0.5585 -13.158202,1.9355 -14.19146,2.474 -25.3005,14.3905 -30.63086,27.3106 -8.46316,19.4447 -1.33685,44.0244 16.44336,55.6914 17.25759,12.5109 42.985092,11.2329 58.447262,-3.6543 17.55401,-15.293 20.46054,-44.1318 6.07032,-62.5137 -8.49792,-11.9672 -22.70508,-18.4617 -37.17188,-18.7695 z m -0.40039,11.4355 c 17.87436,-0.2645 31.45031,21.6799 22.16797,37.3574 -7.35957,14.2865 -29.14186,17.867 -40.083992,5.7461 -11.75711,-11.0829 -8.41798,-32.6231 5.98829,-39.8008 3.646,-2.0461 7.804742,-2.9405 11.927732,-3.3027 z"
         id="path4295" />
    </g>
  </g>
</svg>
