<?xml version="1.0" encoding="UTF-8"?>
<svg width="201px" height="39px" viewBox="0 0 201 39" version="1.1" xmlns="http://www.w3.org/2000/svg" xmlns:xlink="http://www.w3.org/1999/xlink">
    <!-- Generator: Sketch 50.2 (55047) - http://www.bohemiancoding.com/sketch -->
    <title>Group 6</title>
    <desc>Created with Sketch.</desc>
    <defs>
        <polygon id="path-1" points="0 0.221110529 38.6735987 0.221110529 38.6735987 38.8946386 0 38.8946386"></polygon>
    </defs>
    <g id="Symbols" stroke="none" stroke-width="1" fill="none" fill-rule="evenodd">
        <g id="main-nav-no-frame" transform="translate(-67.000000, -17.000000)">
            <g id="Group-6" transform="translate(67.000000, 17.000000)">
                <g id="logo-narrative-alpha">
                    <g id="Group">
                        <g id="Group-3" transform="translate(0.000000, 0.014615)">
                            <mask id="mask-2" fill="white">
                                <use xlink:href="#path-1"></use>
                            </mask>
                            <g id="Clip-2"></g>
                            <path d="M33.1488999,30.6074725 C33.1488999,32.1333237 31.9085123,33.3699398 30.3864327,33.3699398 C29.622682,33.3699398 28.9334206,33.0604322 28.4334468,32.5614013 C27.9348874,32.0618989 27.6242012,31.3681587 27.6242012,30.6074725 L27.6242012,25.0827737 C27.6242012,18.5411551 23.0504191,13.0426218 16.9335778,11.6242614 C17.5301991,9.66161079 18.8382399,8.003989 20.5522001,6.95713201 C21.8079099,6.18772394 23.2842588,5.74573861 24.8617339,5.74573861 C29.4319801,5.74573861 33.1488999,9.46265846 33.1488999,14.0329047 L33.1488999,30.6074725 Z M24.8617339,0.221039811 C20.3548979,0.221039811 16.3409639,2.39584337 13.8165794,5.74573861 L13.8121006,5.74573861 C12.5620482,7.41608958 11.6780775,9.37426139 11.2844159,11.5045128 C4.8715034,12.6932766 0,18.3285306 0,25.0827737 L0,30.6074725 C0,31.4473625 0.124227344,32.2566082 0.355002619,33.0172944 C1.39313777,36.4155134 4.55798848,38.8946386 8.28716606,38.8946386 C12.857648,38.8946386 16.5743321,35.1779544 16.5743321,30.6074725 L16.5743321,25.0827737 C16.5743321,23.5578654 15.3341802,22.3203064 13.8121006,22.3203064 C12.2886066,22.3203064 11.0496333,23.5578654 11.0496333,25.0827737 L11.0496333,30.6074725 C11.0496333,32.1333237 9.80924568,33.3699398 8.28716606,33.3699398 C7.5234154,33.3699398 6.83415401,33.0604322 6.3341802,32.5614013 C5.83562074,32.0618989 5.5246988,31.3681587 5.5246988,30.6074725 L5.5246988,25.0827737 C5.5246988,21.4804164 7.832923,18.4086773 11.0496333,17.2687087 C11.9128601,16.9629728 12.8451545,16.7953719 13.8121006,16.7953719 C14.7816396,16.7953719 15.713934,16.9629728 16.5743321,17.2687087 C19.7926925,18.4086773 22.0992666,21.4804164 22.0992666,25.0827737 L22.0992666,30.6074725 C22.0992666,31.4473625 22.223494,32.2566082 22.4542693,33.0172944 C23.4924044,36.4155134 26.6572551,38.8946386 30.3864327,38.8946386 C34.9569146,38.8946386 38.6735987,35.1779544 38.6735987,30.6074725 L38.6735987,14.0329047 C38.6735987,6.41708486 32.4775537,0.221039811 24.8617339,0.221039811 Z" id="Fill-1" fill="#2BD0F4" mask="url(#mask-2)"></path>
                        </g>
                    </g>
                </g>
                <g id="Group-4" transform="translate(48.000000, 11.000000)" fill="#4B4B4B">
                    <g id="Group-5">
                        <path d="M13.156,17.654 C12.532,17.654 11.986,17.368 11.648,16.874 L3.042,4.862 L3.042,16.12 C3.042,16.952 2.366,17.654 1.534,17.654 C0.676,17.654 0,16.952 0,16.12 L0,2.002 C0,0.91 0.884,0 2.002,0 C2.652,0 3.25,0.312 3.614,0.832 L11.986,12.454 L11.986,1.534 C11.986,0.702 12.662,0 13.494,0 C14.352,0 15.028,0.702 15.028,1.534 L15.028,15.782 C15.028,16.796 14.196,17.654 13.156,17.654 Z M35.7000001,15.548 C35.7520001,15.704 35.8300001,15.912 35.8300001,16.094 C35.8300001,16.952 35.1280001,17.654 34.2700001,17.654 C33.6200001,17.654 33.0480001,17.238 32.8400001,16.666 L31.9300001,14.17 L23.6100001,14.17 L22.7000001,16.666 C22.4920001,17.238 21.9200001,17.654 21.2700001,17.654 C20.4120001,17.654 19.7100001,16.952 19.7100001,16.094 C19.7100001,15.912 19.7880001,15.704 19.8400001,15.548 L25.2740001,1.716 C25.6640001,0.728 26.6260001,0 27.7700001,0 C28.9140001,0 29.8760001,0.728 30.2660001,1.716 L35.7000001,15.548 Z M24.5720001,11.492 L30.9680001,11.492 L27.7700001,2.73 L24.5720001,11.492 Z M53.6160002,15.314 C53.7720002,15.548 53.9020002,15.782 53.9020002,16.276 C53.9020002,16.874 53.3300002,17.654 52.4720002,17.654 C51.9780002,17.654 51.4840002,17.394 51.1980002,17.004 L47.1160002,11.024 L43.5800002,11.024 L43.5800002,16.12 C43.5800002,16.952 42.9040002,17.654 42.0720002,17.654 C41.2140002,17.654 40.5380002,16.952 40.5380002,16.12 L40.5380002,1.768 C40.5380002,0.728 41.1100002,0.156 42.1500002,0.156 L48.1560002,0.156 C51.5880002,0.156 53.8240002,2.392 53.8240002,5.59 C53.8240002,8.424 52.1340002,10.062 50.2360002,10.582 L53.6160002,15.314 Z M43.5800002,2.834 L43.5800002,8.346 L47.7400002,8.346 C49.4560002,8.346 50.7040002,7.254 50.7040002,5.59 C50.7040002,3.926 49.4560002,2.834 47.7400002,2.834 L43.5800002,2.834 Z M72.1040003,15.314 C72.2600003,15.548 72.3900003,15.782 72.3900003,16.276 C72.3900003,16.874 71.8180003,17.654 70.9600003,17.654 C70.4660003,17.654 69.9720003,17.394 69.6860003,17.004 L65.6040003,11.024 L62.0680003,11.024 L62.0680003,16.12 C62.0680003,16.952 61.3920003,17.654 60.5600003,17.654 C59.7020003,17.654 59.0260003,16.952 59.0260003,16.12 L59.0260003,1.768 C59.0260003,0.728 59.5980003,0.156 60.6380003,0.156 L66.6440003,0.156 C70.0760003,0.156 72.3120003,2.392 72.3120003,5.59 C72.3120003,8.424 70.6220003,10.062 68.7240003,10.582 L72.1040003,15.314 Z M62.0680003,2.834 L62.0680003,8.346 L66.2280003,8.346 C67.9440003,8.346 69.1920003,7.254 69.1920003,5.59 C69.1920003,3.926 67.9440003,2.834 66.2280003,2.834 L62.0680003,2.834 Z M92.3340003,15.548 C92.3860003,15.704 92.4640003,15.912 92.4640003,16.094 C92.4640003,16.952 91.7620003,17.654 90.9040003,17.654 C90.2540003,17.654 89.6820003,17.238 89.4740003,16.666 L88.5640003,14.17 L80.2440003,14.17 L79.3340003,16.666 C79.1260003,17.238 78.5540003,17.654 77.9040003,17.654 C77.0460003,17.654 76.3440003,16.952 76.3440003,16.094 C76.3440003,15.912 76.4220003,15.704 76.4740003,15.548 L81.9080003,1.716 C82.2980003,0.728 83.2600003,0 84.4040003,0 C85.5480003,0 86.5100003,0.728 86.9000003,1.716 L92.3340003,15.548 Z M81.2060003,11.492 L87.6020003,11.492 L84.4040003,2.73 L81.2060003,11.492 Z M100.63,17.654 C99.7720004,17.654 99.0960004,16.952 99.0960004,16.12 L99.0960004,2.834 L95.0400004,2.834 C94.3120004,2.834 93.6880004,2.236 93.6880004,1.508 C93.6880004,0.754 94.3120004,0.156 95.0400004,0.156 L106.194,0.156 C106.922,0.156 107.546,0.754 107.546,1.508 C107.546,2.236 106.922,2.834 106.194,2.834 L102.138,2.834 L102.138,16.12 C102.138,16.952 101.462,17.654 100.63,17.654 Z M113.658001,17.654 C112.800001,17.654 112.124001,16.952 112.124001,16.12 L112.124001,1.534 C112.124001,0.702 112.800001,0 113.658001,0 C114.490001,0 115.166001,0.702 115.166001,1.534 L115.166001,16.12 C115.166001,16.952 114.490001,17.654 113.658001,17.654 Z M127.908001,17.654 C126.764001,17.654 125.776001,16.926 125.386001,15.938 L120.004001,2.184 C119.926001,2.002 119.874001,1.82 119.874001,1.612 C119.874001,0.728 120.602001,0 121.486001,0 C122.162001,0 122.760001,0.416 122.994001,1.04 L127.908001,14.196 L132.822001,1.04 C133.056001,0.416 133.654001,0 134.330001,0 C135.214001,0 135.942001,0.728 135.942001,1.612 C135.942001,1.82 135.890001,2.002 135.812001,2.184 L130.430001,15.938 C130.040001,16.926 129.052001,17.654 127.908001,17.654 Z M142.288001,17.498 C141.248001,17.498 140.676001,16.926 140.676001,15.886 L140.676001,1.768 C140.676001,0.728 141.248001,0.156 142.288001,0.156 L151.362001,0.156 C152.090001,0.156 152.714001,0.754 152.714001,1.508 C152.714001,2.236 152.090001,2.834 151.362001,2.834 L143.718001,2.834 L143.718001,7.332 L151.180001,7.332 C151.908001,7.332 152.532001,7.93 152.532001,8.658 C152.532001,9.412 151.908001,10.01 151.180001,10.01 L143.718001,10.01 L143.718001,14.82 L151.362001,14.82 C152.090001,14.82 152.714001,15.418 152.714001,16.146 C152.714001,16.9 152.090001,17.498 151.362001,17.498 L142.288001,17.498 Z" id="NARRATIVE"></path>
                    </g>
                </g>
            </g>
        </g>
    </g>
</svg>