<svg xmlns="http://www.w3.org/2000/svg" viewBox="0 0 370.85 197.68"><g transform="translate(-.01)"><path d="M232.93,1.91a7.86,7.86,0,0,0-2,5.3c0,1.8-.9,10.7-2,19.8s-2.9,24.5-4,34.4-2.8,23.4-3.5,30-1.5,13.8-1.5,16-.2,3.6-.5,3.3-2.2-10.2-4.1-21.9c-3.9-23.6-5-26.3-9.8-24.1-2.7,1.2-2.5.4-8.1,23.9l-3.7,15.3H98c-73.1,0-96,.3-96.9,1.2-1.5,1.5-1.5,5.1,0,6.6.9.9,24.5,1.2,100,1.2h98.8l1.3-2.3c.8-1.2,2-4.9,2.7-8.2s1.6-6.4,2-6.8,2.6,11.3,5,26c4.6,29,5.4,31.2,10.4,29.9a4.38,4.38,0,0,0,3.2-3.1c.3-1.4,2.7-21.5,5.3-44.8,5.4-47.7,5-47.4,7.6-4.7,5.4,86.7,6.1,96,7.8,97.7,2.1,2.1,6.4.9,7.3-2,.4-1.2,3-20,5.9-41.7,5.4-41,5.6-41.6,7.4-24.2,1,9.2,2.2,11.4,6,11,2.2-.3,3.6-2.2,9.4-13.1l6.9-12.7H347l2.5,3a12.11,12.11,0,0,0,20-2.1c4.1-7.9-1.8-17.9-10.6-17.9-3.8,0-8.6,2.4-10,5-1,1.9-2.1,2-32.8,2-23.9,0-32.2.3-33.4,1.2-.9.7-3.1,4.1-4.8,7.6s-3.3,6.2-3.5,6-1.5-11.1-3-24.3-3.2-24.6-3.7-25.3c-1.8-2.1-6.7-1.5-7.8,1-.5,1.3-2,11.5-3.5,22.8s-3.2,25.1-4,30.6-1.5,11.6-1.5,13.3c0,1.9-.4,3-1,2.6s-1-3.6-1-7.3-.9-19.5-2-35.2-2.6-39.3-3.5-52.5c-2.6-40.7-2.6-40.9-4.3-42.8C237.13-.59,235.43-.59,232.93,1.91Z" fill="#8f161d"/><g fill="#404040"><path d="m22.13 68.11l.3 25.3h9l.3-9.8.3-9.7h2.8c2.4 0 3.6 1.3 9.5 10l6.6 10h5c2.8 0 5-.4 5-.8s-3.1-5.4-6.9-11l-7.03-10.11 3.3-2.1c6.5-4 8.6-13.7 4.3-20.1-3.2-4.9-9.6-6.8-22.5-6.9h-10.17m23.5 10.51c3.3 3.3 3.2 7-.4 10.6-2.5 2.4-3.7 2.9-8 2.9h-5.1v-16h5.5c4.57 0 6 .4 8 2.5"/><path d="m65.93 68.41v25.5h32v-8h-22v-14h17v-8h-17v-13h22v-8h-32"/><path d="m104.83 43.61v25.3l.1 24.5h12.3c14.2 0 19.3-1.5 25-7.2 5.2-5.1 7-10.6 6.6-19.6-.5-9.8-4-15.6-11.9-20.1-5.3-3-6.1-3.1-18.7-3.4-7.3-.2-13.3 0-13.4.5m27.1 9.6c5.2 3.4 7.3 7.8 7.3 15.2 0 7.1-1.9 11.4-6.6 14.9-2.2 1.6-4.7 2.2-10.8 2.5l-7.9.3v-35.2h7.4c5.9 0 7.9.4 10.6 2.3"/><path d="m149.43 122.41c-.5.2-1.91.2-3.31.5-5.7 1.2-10.79 9.8-9.49 16.1.9 4.5 4.4 7.4 11.6 9.8 3.7 1.3 7.3 3.2 8.1 4.2a5.87 5.87 0 0 1 -1.2 7.6c-2.5 2-9.1 1.5-13-.9l-3.5-2.1-1.8 2.2c-2.7 3.3-2.4 4.5 2 6.9 5 2.8 11.9 3.8 16.4 2.3s9.4-7 10.3-11.6c1.4-7.6-1.8-11.9-11.9-15.5-7.8-2.8-8.7-3.6-8.7-7.1 0-4.9 6-6.4 12.7-3.2 3.5 1.6 3.6 1.6 5.4-.8 1-1.3 1.7-2.8 1.6-3.3-.7-2.3-11.36-5.94-15.2-5.1"/><path d="m21.93 145.91v23h9v-16h5.8c11.2-.1 18.2-5.8 18.2-15 0-10.6-6.7-14.9-22.7-15h-10.3m21.4 9.09c3.4 2.7 3.6 8.2.4 11.6-1.7 1.8-3.2 2.3-7.5 2.3h-5.3v-16h4.9c3.4.01 5.6.61 7.5 2.1"/><path d="M59.93,139.41c0,14.5.2,17.1,2,20.4,6.8,13.3,27.4,13.2,33.9-.1,1.9-4,2.1-6.2,2.1-20.6v-16.2H89l-.3,17c-.3,16.1-.4,17.1-2.6,19.2-3.2,3.2-11.2,3.3-14.4,0-2.2-2.1-2.3-3.2-2.8-19l-.5-16.7-4.2-.3-4.3-.3Z"/><path d="m104.93 145.91v23h27v-7h-18v-39h-9"/><path d="m170.93 145.91v23h29v-7h-20v-13h16v-6h-16v-13h20v-7h-29"/></g></g></svg>